<svg fill="#3DDC84" role="img" viewBox="0 0 24 24" xmlns="http://www.w3.org/2000/svg"><title>Android</title><path d="M17.523 15.341c-.551 0-.999-.448-.999-.999s.448-.999.999-.999.999.448.999.999-.448.999-.999.999m-11.046 0c-.551 0-.999-.448-.999-.999s.448-.999.999-.999.999.448.999.999-.448.999-.999.999m11.404-6.02 1.997-3.459a.416.416 0 0 0-.152-.567.416.416 0 0 0-.567.152l-2.022 3.503C15.59 8.243 13.853 7.681 12 7.681s-3.59.562-5.136 1.768L4.842 5.946a.416.416 0 0 0-.567-.152.416.416 0 0 0-.152.567l1.997 3.459C2.688 11.186.343 14.658.343 18.737h23.314c0-4.079-2.345-7.551-5.78-9.416"/></svg>
